<svg id="Слой_1" data-name="Слой 1" xmlns="http://www.w3.org/2000/svg" viewBox="0 0 242.8 242.8"><defs><style>.cls-1{fill:#fff3e5;}.cls-2,.cls-3,.cls-4{fill:none;}.cls-2,.cls-3{stroke:#ff8c00;stroke-miterlimit:10;}.cls-2{stroke-width:2px;}.cls-5{font-size:28px;font-family:Verdana-Bold, Verdana;font-weight:700;}</style></defs><title>Screenshot_2</title><polyline class="cls-1" points="0 0 242.8 0 242.8 242.8 0 242.8 0 0"/><circle class="cls-2" cx="108.96" cy="74.75" r="11.6"/><circle class="cls-2" cx="146.16" cy="91.74" r="8"/><polygon class="cls-2" points="98.26 89.84 119.21 89.84 131.76 111.75 138.16 104.34 154.16 104.25 150.46 143.54 140.16 143.54 138.56 113.25 130.06 119.55 118.96 99.75 117.26 142.04 102.86 142.44 98.26 89.84"/><path class="cls-3" d="M304.37,415.65" transform="translate(-176.24 -299.54)"/><path class="cls-3" d="M308,411.29" transform="translate(-176.24 -299.54)"/><line class="cls-2" x1="138.16" y1="104.35" x2="128.13" y2="116.1"/><path class="cls-4" d="M189.47,455.22" transform="translate(-176.24 -299.54)"/><text class="cls-5" transform="translate(27.26 179.04) scale(0.93 1.05)">Self Made Kid</text></svg>