<svg id="Слой_1" data-name="Слой 1" xmlns="http://www.w3.org/2000/svg" viewBox="0 0 607.2 602"><defs><style>.cls-1{fill:#78c2db;}.cls-2{fill:#faf7c3;}.cls-3{fill:#da6d87;}.cls-4{fill:#77c2da;}.cls-5{fill:#3a4369;}.cls-6{fill:#515899;}.cls-7{fill:#90cad1;}</style></defs><title>bachground</title><path class="cls-1" d="M125.87,412.35a62.29,62.29,0,0,1,10.79-.93c42.45,0,76.86,42.66,76.86,95.29S179.11,602,136.66,602c-39.22,0-71.58-36.42-76.27-83.47" transform="translate(204.2 0)"/><path class="cls-1" d="M60.39,518.53a118,118,0,0,1-.59-11.82c0-48.09,28.73-87.86,66.07-94.36" transform="translate(204.2 0)"/><path class="cls-2" d="M53,0c7,4.47,17.68,10.94,31,18C115.94,35,121.09,33,135,44,156,60.75,166.36,83,169,89c4.5,10.32,4,13.38,10,27,7.37,16.66,16,29.92,20,35,25.16,32.25,88.33,26.85,110,25,20.71-1.77,55.19-7.59,94-29L399.28,0Z" transform="translate(204.2 0)"/><path class="cls-3" d="M63,0a172.89,172.89,0,0,1,67,18c12.65,6.36,37.09,20.42,55,44,17.24,22.7,20,41.34,25,53,11.84,27.37,53.72,56.05,189.28,58V0H63Z" transform="translate(204.2 0)"/><path class="cls-3" d="M65.13,602a87.91,87.91,0,0,1-1.21-14.58c0-54.13,49.6-98,110.8-98s110.8,43.87,110.8,98a87.66,87.66,0,0,1-1.19,14.38" transform="translate(204.2 0)"/><path class="cls-2" d="M10.74,602a147.6,147.6,0,0,1,289.18-.28" transform="translate(204.2 0)"/><path class="cls-4" d="M148.32,430.51c0-66.39,56.64-121.34,130.39-130.62" transform="translate(204.2 0)"/><path class="cls-5" d="M125.87,412.35c-17,21.49-29.45,52.12-29.52,83.83" transform="translate(204.2 0)"/><path class="cls-5" d="M96.35,496.18a110.68,110.68,0,0,0,12.25,51.64c17.14,33.06,46.73,48.39,60,54.18H399.28L403,0H289a86.33,86.33,0,0,0-17,8c-1.24.76-29.62,18.67-39.4,50.73-9.92,32.53,4.74,61.8,16,84.27,24.84,49.6,47.41,44.89,53.6,72.8,12,54-61.14,122.93-113.6,155.2-31.07,19.11-39.87,16.12-56.8,34.4-2,2.18-4,4.5-5.93,6.93" transform="translate(204.2 0)"/><path class="cls-6" d="M327,0A90.34,90.34,0,0,0,316.6,8.62c-11.18,10.77-19.83,24.68-27.2,48-9.5,30.09-16.15,51.13-11.2,76.8,8.87,46,48.66,74.09,80.8,96.8A287.64,287.64,0,0,0,401.42,255L399.28,0Z" transform="translate(204.2 0)"/><path class="cls-6" d="M399.28,466.8c-2.43-.82-6.19-2.14-10.68-4-40.42-16.75-51.19-40.09-74.4-52-32.54-16.69-71.11-1.45-76.8.8C196,428,156.72,476.17,167,528.4c9.64,49,56.82,71.09,62.4,73.6H400.06Z" transform="translate(204.2 0)"/><path class="cls-2" d="M396.38,163.86a52.8,52.8,0,0,1,0-105.6" transform="translate(204.2 0)"/><circle class="cls-3" cx="126" cy="114.62" r="34"/><circle class="cls-7" cx="18.4" cy="488.31" r="18.4"/><path class="cls-2" d="M403,585.09c-20.3,14.22-50.95,18.18-81.25,8.15-45-14.91-72.21-55.06-60.75-89.69s57.26-50.61,102.27-35.71A105.35,105.35,0,0,1,403,491.36" transform="translate(204.2 0)"/></svg>