<svg id="Слой_1" data-name="Слой 1" xmlns="http://www.w3.org/2000/svg" viewBox="0 0 399.28 467"><defs><style>.cls-1{fill:#dba77b;}.cls-2{fill:#aba7a8;}</style></defs><title>bachground</title><path class="cls-1" d="M332,392.51c-25.17-9.21-55.39-10-79.71,2.26-27.86,14.09-39.92,43.83-48.58,72.22A183.36,183.36,0,0,0,269,456c14.43-5.33,11.71-6.56,92.48-45.81A88,88,0,0,0,332,392.51Z"/><path class="cls-1" d="M375.07,116.78c-14.71,5.76-28.91,14.91-38.76,27.42-8.87,11.27-16.52,31.18-.28,39.91,12.36,6.64,28.75,4.79,42.28,5.78,7,.52,14,1.55,21,2.61V110.21A111.34,111.34,0,0,0,375.07,116.78Z"/><path class="cls-1" d="M399.28,0H0L13,11A319.38,319.38,0,0,1,52,48C73,71.67,84.62,91.83,87,96c9.19,16.22,13.79,24.32,16,35,4.84,23.38-3.24,42.92-14,68-12.69,29.57-19.41,31.5-39,71C38.13,294,32.15,306.19,30,320c-1.07,6.84-5.39,38.93,12,71,16.67,30.74,43.82,44,65,54a245.14,245.14,0,0,0,86.37,21.63c5.52-18.5,12-37.21,23.14-53.1,18.43-26.23,48-38.54,79.63-37.84,27.09.6,55.7,10.19,74.94,29.85,11.67-5.65,21.37-10.29,28.2-13.54V202.48c-11.34-1.44-22.7-2.61-34.1-3.18-15.66-.77-36.13-1.69-45.14-16.88-9.52-16,.66-35.81,11.62-48.16,16.4-18.48,42-31.25,67.62-34.29V0"/><path class="cls-1" d="M339,84q-3,22-6.05,44.11"/><path class="cls-1" d="M-59,376"/><path class="cls-1" d="M-241,183"/><path class="cls-1" d="M-575,15"/><path class="cls-2" d="M336.31,144.2c-8.87,11.27-16.52,31.18-.28,39.91,12.36,6.64,28.75,4.79,42.28,5.78,7,.52,14,1.55,21,2.61V110.21a110.78,110.78,0,0,0-24.21,6.57C360.36,122.54,346.16,131.69,336.31,144.2Z"/><path class="cls-2" d="M365.18,199.3c-15.66-.77-36.13-1.69-45.14-16.88-9.52-16,.66-35.81,11.62-48.16,16.4-18.48,42-31.25,67.62-34.29V67.15a97.08,97.08,0,1,0,0,152.2V202.48C387.94,201,376.58,199.87,365.18,199.3Z"/></svg>